<?xml version="1.0" encoding="UTF-8"?>
<svg width="100px" height="64px" viewBox="0 0 100 64" version="1.1" xmlns="http://www.w3.org/2000/svg" xmlns:xlink="http://www.w3.org/1999/xlink">
    <!-- Generator: Sketch 52.2 (67145) - http://www.bohemiancoding.com/sketch -->
    <title>noun_ocarina_730578</title>
    <desc>Created with Sketch.</desc>
    <g id="Page-1" stroke="none" stroke-width="1" fill="none" fill-rule="evenodd">
        <g id="noun_ocarina_730578" transform="translate(-1.000000, 0.000000)" fill="#000000">
            <path d="M100.934,40.447 C99.576,33.06 81.656,28.375 46.153,26.121 C44.334,25.508 42.726,24.64 40.099,11.522 C39.356,8.897 36.609,0.33 32.451,0.33 C30.482,0.33 28.848,2.107 27.443,5.787 C27.185,6.507 27.096,7.931 26.938,10.826 C26.669,15.719 26.037,27.176 23.056,28.039 C22.211,28.274 2.336,33.88 1.047,43.795 C0.425,48.575 4.135,53.349 12.105,58.003 C12.526,58.232 22.648,63.668 40.897,63.668 C40.899,63.668 40.899,63.668 40.902,63.668 C56.86,63.668 73.84,59.534 91.351,51.386 C92.446,50.886 102.02,46.344 100.934,40.447 Z M90.301,49.104 C73.114,57.1 56.494,61.156 40.903,61.156 C40.903,61.156 40.9,61.156 40.898,61.156 C23.348,61.156 13.409,55.851 13.342,55.813 C6.359,51.737 3.061,47.801 3.539,44.123 C4.43,37.257 18.414,31.934 23.741,30.458 C28.089,29.2 28.922,20.519 29.449,10.965 C29.55,9.137 29.662,7.066 29.8,6.657 C31.185,3.027 32.252,2.844 32.451,2.844 C33.97,2.844 36.425,7.779 37.657,12.111 C40.328,25.471 42.189,27.454 45.514,28.559 L45.831,28.62 C90.169,31.42 97.836,37.518 98.465,40.9 C99.083,44.272 92.623,48.043 90.301,49.104 Z" id="Shape" fill-rule="nonzero"></path>
            <circle id="Oval" cx="18.12" cy="46.939" r="4.031"></circle>
            <circle id="Oval" cx="30.269" cy="40.761" r="4.45"></circle>
            <path d="M29.692,49.904 C27.551,49.904 25.817,51.638 25.817,53.779 C25.817,55.917 27.551,57.656 29.692,57.656 C31.832,57.656 33.568,55.917 33.568,53.779 C33.568,51.639 31.832,49.904 29.692,49.904 Z" id="Path"></path>
            <circle id="Oval" cx="42.983" cy="48.03" r="4.284"></circle>
            <path d="M58.13,33.115 C55.787,33.115 53.887,35.015 53.887,37.357 C53.887,39.702 55.787,41.597 58.13,41.597 C60.47,41.597 62.371,39.701 62.371,37.357 C62.371,35.016 60.47,33.115 58.13,33.115 Z" id="Path"></path>
            <path d="M69.44,37.672 C67.27,37.672 65.512,39.432 65.512,41.598 C65.512,43.767 67.27,45.527 69.44,45.527 C71.61,45.527 73.368,43.767 73.368,41.598 C73.368,39.432 71.61,37.672 69.44,37.672 Z" id="Path"></path>
            <path d="M80.854,36.311 C78.802,36.311 77.136,37.974 77.136,40.028 C77.136,42.085 78.802,43.747 80.854,43.747 C82.907,43.747 84.571,42.085 84.571,40.028 C84.571,37.974 82.907,36.311 80.854,36.311 Z" id="Path"></path>
        </g>
    </g>
</svg>